<?xml version="1.0" encoding="UTF-8"?>
<svg width="95px" height="97px" viewBox="0 0 95 97" version="1.1" xmlns="http://www.w3.org/2000/svg" xmlns:xlink="http://www.w3.org/1999/xlink">
    <title>actualizacion</title>
    <g id="actualizacion" stroke="none" stroke-width="1" fill="none" fill-rule="evenodd">
        <g id="abstract-(1)" transform="translate(14.000000, 9.000000)" fill-rule="nonzero">
            <path d="M6.49942871,32.9134521 L0,32.9134521 C0,58.3653003 20.3698913,79 45.4998096,79 L45.4998096,72.4163452 C23.9589547,72.4163452 6.49942871,54.7302588 6.49942871,32.9134521 Z" id="Path" fill="#737C85"></path>
            <path d="M45.4998096,6.58365479 L45.4998096,0 C27.5489702,0 12.9998096,14.7355444 12.9998096,32.9134521 C12.9998096,51.0942529 27.5489702,65.8336548 45.4998096,65.8336548 L45.4998096,59.25 C31.1389857,59.25 19.5001904,47.4592114 19.5001904,32.9144165 C19.5001904,18.3744434 31.1387953,6.58365479 45.4998096,6.58365479 Z" id="Path" fill="#737C85"></path>
            <path d="M45.4998096,13.1663452 C34.7278587,13.1663452 25.9996191,22.0063989 25.9996191,32.9134521 C25.9996191,43.8233984 34.7278587,52.6663452 45.4998096,52.6663452 L45.4998096,46.0836548 C38.3178742,46.0836548 32.5,40.1873926 32.5,32.9163452 C32.5,25.6452979 38.3178742,19.75 45.4998096,19.75 C52.6826971,19.75 58.5005713,25.6452979 58.5005713,32.9163452 L65,32.9134521 C65,22.0063989 56.2727126,13.1663452 45.4998096,13.1663452 Z" id="Path" fill="#0078F2"></path>
        </g>
    </g>
</svg>